<svg aria-hidden="true" style="position: absolute; width: 0; height: 0; overflow: hidden;" version="1.1" xmlns="http://www.w3.org/2000/svg" xmlns:xlink="http://www.w3.org/1999/xlink">
<defs>
<symbol id="icon-donation" viewBox="0 0 32 32">
<path d="M13.066 14.353c1.752 0 2.538 0.982 2.847 1.559 0.039 0.072 0.144 0.072 0.183-0 0.308-0.577 1.090-1.559 2.842-1.559 1.995 0 3.751 1.362 3.751 3.85 0 1.007-0.205 1.869-0.774 2.831-1.16 1.961-4.982 4.504-5.767 5.005-0.087 0.055-0.197 0.056-0.284 0-0.786-0.499-4.609-3.028-5.778-5.005-0.569-0.962-0.773-1.825-0.773-2.831-0-2.487 1.758-3.85 3.754-3.85z"></path>
<path d="M16.004 27.001c-0.225 0-0.444-0.064-0.635-0.184-0.481-0.305-4.736-3.046-6.077-5.314-0.623-1.054-0.901-2.072-0.901-3.3 0-1.431 0.49-2.651 1.417-3.527 0.848-0.802 2.005-1.244 3.258-1.244 1.422 0 2.354 0.541 2.938 1.1 0.582-0.559 1.513-1.1 2.934-1.1 1.253 0 2.409 0.442 3.257 1.244 0.926 0.876 1.415 2.096 1.415 3.527 0 1.227-0.278 2.245-0.903 3.3-1.332 2.252-5.584 5.005-6.065 5.312-0.191 0.122-0.411 0.186-0.637 0.186zM13.066 15.274c-1.41 0-2.833 0.906-2.833 2.929 0 0.904 0.187 1.588 0.645 2.362 0.847 1.431 3.545 3.428 5.126 4.468 1.581-1.045 4.277-3.047 5.118-4.468 0.459-0.776 0.646-1.46 0.646-2.362 0-2.023-1.421-2.929-2.83-2.929-1.204 0-1.768 0.583-2.029 1.072-0.179 0.334-0.525 0.541-0.904 0.541s-0.724-0.207-0.903-0.54c-0.262-0.49-0.829-1.073-2.035-1.073z"></path>
<path d="M19.988 7.644c-0.323 0-0.637-0.17-0.805-0.473-0.248-0.444-0.088-1.005 0.356-1.253l3.043-1.697c0.444-0.248 1.005-0.088 1.253 0.356s0.088 1.005-0.356 1.253l-3.043 1.697c-0.142 0.079-0.296 0.117-0.448 0.117z"></path>
<path d="M23.278 8.805c-0.083 0-0.168-0.011-0.252-0.035l-3.352-0.952c-0.489-0.139-0.773-0.648-0.634-1.138s0.648-0.773 1.138-0.634l3.352 0.952c0.489 0.139 0.773 0.648 0.634 1.138-0.115 0.405-0.484 0.67-0.886 0.67z"></path>
<path d="M16 32c-6.604 0-11.978-5.373-11.978-11.978 0-2.794 1.043-5.613 3.101-8.378 1.371-1.843 3.009-3.4 4.399-4.557l-1.183-3.615c-0.267-0.816-0.131-1.683 0.373-2.378s1.286-1.094 2.144-1.094h6.287c0.859 0 1.64 0.399 2.144 1.094s0.64 1.562 0.373 2.378l-1.215 3.714c-0.158 0.484-0.679 0.747-1.162 0.589s-0.747-0.678-0.589-1.162l1.215-3.714c0.081-0.248 0.040-0.512-0.114-0.724s-0.391-0.333-0.653-0.333h-6.287c-0.261 0-0.499 0.121-0.653 0.333s-0.195 0.476-0.114 0.724l1.008 3.080h0.139c0.395 0 0.747 0.252 0.873 0.627s-0.001 0.788-0.316 1.027c-2.961 2.249-7.929 6.85-7.929 12.389 0 5.589 4.547 10.136 10.136 10.136s10.136-4.547 10.136-10.136c0-2.347-0.861-4.734-2.558-7.095-0.297-0.413-0.203-0.988 0.21-1.286s0.989-0.203 1.285 0.21c1.928 2.68 2.905 5.429 2.905 8.17 0 6.605-5.373 11.978-11.978 11.978z"></path>
<path d="M19.447 7.821h-6.21c-0.509 0-0.921-0.412-0.921-0.921s0.412-0.921 0.921-0.921h6.21c0.509 0 0.921 0.412 0.921 0.921s-0.412 0.921-0.921 0.921z"></path>
</symbol>
</defs>
</svg>
