<svg aria-hidden="true" style="position: absolute; width: 0; height: 0; overflow: hidden;" version="1.1" xmlns="http://www.w3.org/2000/svg" xmlns:xlink="http://www.w3.org/1999/xlink">
<defs>
<symbol id="icon-donate" viewBox="0 0 32 32">
<path d="M29.357 4.922h-26.715c-1.457 0-2.643 1.185-2.643 2.643v7.657c0 1.457 1.185 2.643 2.643 2.643h19.921v2.035c-1.372 0-2.181 0.978-2.181 2.042 0 1.025 0.769 2.042 2.181 2.042 0 0.928 0 1.422 0 2.373 0 0.398 0.323 0.721 0.721 0.721h6.444c0.398 0 0.721-0.323 0.721-0.721 0-1.002 0-4.211 0-5.172 0-1.322-1.076-2.398-2.398-2.398h-1.403v-0.922h2.71c1.457 0 2.643-1.185 2.643-2.643v-7.657c0-1.457-1.185-2.643-2.643-2.643zM29.008 25.636h-5.003v-0.741h5.003v0.741zM28.051 20.228v0c0.528 0 0.957 0.429 0.957 0.957v2.268h-5.003v-0.19c0-0.398-0.323-0.721-0.721-0.721h-0.86c-0.331 0-0.601-0.269-0.601-0.601s0.269-0.601 0.601-0.601h0.86c0.398 0 0.721-0.323 0.721-0.721 0-0.904 0-3.516 0-4.414 0-0.331 0.269-0.601 0.601-0.601s0.601 0.269 0.601 0.601c0 1.95 0 1.363 0 3.301 0 0.398 0.323 0.721 0.721 0.721h2.124zM30.559 15.222c0 0.662-0.539 1.201-1.201 1.201h-2.71v-0.216c0-1.126-0.916-2.042-2.042-2.042s-2.042 0.916-2.042 2.042v0.216h-19.921c-0.662 0-1.201-0.539-1.201-1.201v-7.657c0-0.662 0.539-1.201 1.201-1.201h26.715c0.662 0 1.201 0.539 1.201 1.201v7.657z"></path>
<path d="M6.127 9.331h-0.66c-0.173 0-0.307 0.134-0.307 0.307v3.298c0 0.168 0.134 0.307 0.307 0.307h0.66c1.079 0 1.951-0.878 1.951-1.962 0-1.073-0.872-1.951-1.951-1.951zM6.127 12.623h-0.347v-2.672h0.347c0.738 0 1.33 0.598 1.33 1.33 0 0.743-0.592 1.336-1.33 1.341z"></path>
<path d="M10.845 9.219c-1.075 0-1.923 0.906-1.923 2.012 0 1.159 0.901 2.012 1.923 2.012 1.023 0 1.9-0.91 1.9-2.012 0-1.056-0.832-2.012-1.901-2.012zM10.845 12.607c-0.699 0-1.286-0.606-1.286-1.375 0-0.73 0.539-1.375 1.286-1.375 0.707 0 1.263 0.641 1.263 1.375 0 0.781-0.61 1.375-1.263 1.375z"></path>
<path d="M16.363 9.387c-0.168 0-0.302 0.14-0.302 0.302v2.303l-1.805-2.498c-0.166-0.235-0.566-0.113-0.548 0.19 0 0.006 0 0.006 0 0.006v3.248c0 0.168 0.134 0.307 0.307 0.307 0.162 0 0.302-0.14 0.302-0.307v-2.32l1.789 2.482c0.006 0.011 0.017 0.022 0.028 0.034 0.191 0.229 0.537 0.077 0.537-0.196v-3.248c0-0.162-0.14-0.302-0.307-0.302z"></path>
<path d="M19.622 9.532c-0.109-0.267-0.487-0.259-0.593 0l-1.235 3.292c-0.136 0.393 0.43 0.594 0.581 0.224l0.274-0.727h1.358l0.274 0.727c0.064 0.177 0.267 0.229 0.391 0.179 0.162-0.062 0.24-0.24 0.184-0.402l-1.235-3.292zM18.873 11.707l0.453-1.202 0.453 1.202h-0.905z"></path>
<path d="M23.457 9.331h-2.387c-0.414 0-0.4 0.62 0 0.62h0.883v2.985c0 0.405 0.615 0.41 0.615 0v-2.985h0.889c0.168 0 0.307-0.145 0.307-0.313-0-0.173-0.14-0.307-0.307-0.307z"></path>
<path d="M26.822 9.952c0.162 0 0.307-0.14 0.307-0.313s-0.145-0.307-0.307-0.307h-1.811c-0.011 0-0.011 0-0.011 0h-0.006c-0.173 0-0.307 0.134-0.307 0.307v3.298c0 0.168 0.134 0.307 0.307 0.307l0.006-0.006c0 0 0 0.006 0.011 0.006h1.811c0.162 0 0.307-0.14 0.307-0.307 0-0.173-0.145-0.313-0.307-0.313h-1.515v-1.029h1.302c0.168 0 0.307-0.14 0.307-0.313 0-0.162-0.14-0.307-0.307-0.307h-1.302v-1.023h1.515z"></path>
</symbol>
</defs>
</svg>
