<svg aria-hidden="true" style="position: absolute; width: 0; height: 0; overflow: hidden;" version="1.1" xmlns="http://www.w3.org/2000/svg" xmlns:xlink="http://www.w3.org/1999/xlink">
<defs>
<symbol id="icon-twitch" viewBox="0 0 32 32">
<path fill="#fff" style="fill: var(--color1, #fff)" d="M27.43 14.857l-4.571 4.571h-4.571l-4 4v-4h-5.143v-17.143h18.286v12.571z"></path>
<path fill="#9146ff" style="fill: var(--color2, #9146ff)" d="M8.001 0l-5.714 5.714v20.571h6.857v5.714l5.714-5.714h4.571l10.286-10.286v-16h-21.714zM27.43 14.857l-4.571 4.571h-4.571l-4 4v-4h-5.143v-17.143h18.286v12.571z"></path>
<path fill="#9146ff" style="fill: var(--color2, #9146ff)" d="M24.001 6.286h-2.286v6.857h2.286v-6.857z"></path>
<path fill="#9146ff" style="fill: var(--color2, #9146ff)" d="M17.715 6.286h-2.286v6.857h2.286v-6.857z"></path>
</symbol>
<symbol id="icon-instagram" viewBox="0 0 32 32">
<path d="M16 2.881c4.275 0 4.781 0.019 6.463 0.094 1.562 0.069 2.406 0.331 2.969 0.55 0.744 0.288 1.281 0.638 1.837 1.194 0.563 0.563 0.906 1.094 1.194 1.838 0.219 0.562 0.481 1.412 0.55 2.969 0.075 1.687 0.094 2.194 0.094 6.463 0 4.275-0.019 4.781-0.094 6.462-0.069 1.563-0.331 2.406-0.55 2.969-0.288 0.744-0.638 1.281-1.194 1.838-0.562 0.562-1.094 0.906-1.837 1.194-0.563 0.219-1.413 0.481-2.969 0.55-1.688 0.075-2.194 0.094-6.463 0.094-4.275 0-4.781-0.019-6.462-0.094-1.563-0.069-2.406-0.331-2.969-0.55-0.744-0.287-1.281-0.637-1.837-1.194-0.563-0.563-0.906-1.094-1.194-1.838-0.219-0.562-0.481-1.412-0.55-2.969-0.075-1.687-0.094-2.194-0.094-6.462 0-4.275 0.019-4.781 0.094-6.463 0.069-1.563 0.331-2.406 0.55-2.969 0.288-0.744 0.638-1.281 1.194-1.838 0.563-0.563 1.094-0.906 1.838-1.194 0.563-0.219 1.412-0.481 2.969-0.55 1.681-0.075 2.187-0.094 6.462-0.094zM16 0c-4.344 0-4.887 0.019-6.594 0.094-1.7 0.075-2.869 0.35-3.881 0.744-1.056 0.412-1.95 0.956-2.837 1.85-0.894 0.888-1.438 1.781-1.85 2.831-0.394 1.019-0.669 2.181-0.744 3.881-0.075 1.712-0.094 2.256-0.094 6.6s0.019 4.887 0.094 6.594c0.075 1.7 0.35 2.869 0.744 3.881 0.413 1.056 0.956 1.95 1.85 2.838 0.887 0.887 1.781 1.437 2.831 1.844 1.019 0.394 2.181 0.669 3.881 0.744 1.706 0.075 2.25 0.094 6.594 0.094s4.888-0.019 6.594-0.094c1.7-0.075 2.869-0.35 3.881-0.744 1.050-0.406 1.944-0.956 2.831-1.844s1.438-1.781 1.844-2.831c0.394-1.019 0.669-2.181 0.744-3.881 0.075-1.706 0.094-2.25 0.094-6.594s-0.019-4.888-0.094-6.594c-0.075-1.7-0.35-2.869-0.744-3.881-0.394-1.063-0.937-1.956-1.831-2.844-0.888-0.887-1.781-1.438-2.831-1.844-1.019-0.394-2.181-0.669-3.881-0.744-1.712-0.081-2.256-0.1-6.6-0.1z"></path>
<path d="M16 7.781c-4.537 0-8.219 3.681-8.219 8.219s3.681 8.219 8.219 8.219c4.537 0 8.219-3.681 8.219-8.219s-3.681-8.219-8.219-8.219zM16 21.331c-2.944 0-5.331-2.388-5.331-5.331s2.388-5.331 5.331-5.331c2.944 0 5.331 2.388 5.331 5.331s-2.388 5.331-5.331 5.331z"></path>
<path d="M26.462 7.456c0 1.063-0.862 1.919-1.919 1.919-1.062 0-1.919-0.862-1.919-1.919 0-1.063 0.863-1.919 1.919-1.919s1.919 0.862 1.919 1.919z"></path>
</symbol>
<symbol id="icon-tiktok" viewBox="0 0 32 32">
<path fill="#ff004f" style="fill: var(--color3, #ff004f)" d="M22.902 11.551c2.058 1.476 4.579 2.345 7.301 2.345v-5.258c-0.515 0-1.029-0.054-1.533-0.161v4.139c-2.722 0-5.243-0.869-7.301-2.345v10.73c0 5.368-4.336 9.719-9.684 9.719-1.996 0-3.85-0.605-5.391-1.644 1.759 1.805 4.211 2.924 6.924 2.924 5.349 0 9.685-4.351 9.685-9.719v-10.73h-0zM24.794 6.247c-1.052-1.153-1.742-2.643-1.892-4.29v-0.676h-1.453c0.366 2.094 1.613 3.883 3.345 4.967zM9.676 24.957c-0.588-0.773-0.905-1.719-0.904-2.691 0-2.455 1.983-4.445 4.43-4.445 0.456-0 0.909 0.070 1.344 0.208v-5.375c-0.508-0.070-1.020-0.1-1.533-0.089v4.184c-0.435-0.138-0.888-0.209-1.344-0.208-2.447 0-4.43 1.99-4.43 4.446 0 1.736 0.991 3.239 2.437 3.971z"></path>
<path fill="#000" style="fill: var(--color4, #000)" d="M21.369 10.271c2.058 1.476 4.579 2.345 7.301 2.345v-4.139c-1.52-0.325-2.865-1.122-3.876-2.23-1.731-1.084-2.979-2.873-3.345-4.967h-3.817v21.001c-0.009 2.448-1.988 4.431-4.43 4.431-1.439 0-2.717-0.688-3.526-1.754-1.445-0.732-2.437-2.235-2.437-3.971 0-2.455 1.983-4.446 4.43-4.446 0.469 0 0.921 0.073 1.344 0.208v-4.184c-5.254 0.109-9.48 4.417-9.48 9.716 0 2.645 1.052 5.043 2.76 6.795 1.541 1.038 3.396 1.644 5.391 1.644 5.348 0 9.684-4.351 9.684-9.719v-10.73h-0z"></path>
<path fill="#00f2ea" style="fill: var(--color5, #00f2ea)" d="M28.67 8.477v-1.119c-1.37 0.002-2.714-0.383-3.877-1.111 1.029 1.131 2.385 1.911 3.877 2.231zM21.449 1.28c-0.035-0.2-0.062-0.401-0.080-0.604v-0.676h-5.27v21.001c-0.008 2.448-1.988 4.43-4.43 4.43-0.717 0-1.394-0.171-1.993-0.474 0.809 1.066 2.088 1.754 3.526 1.754 2.441 0 4.421-1.982 4.43-4.43v-21.001h3.817zM13.014 12.565v-1.191c-0.44-0.060-0.884-0.091-1.329-0.091-5.349-0-9.685 4.351-9.685 9.718 0 3.365 1.704 6.331 4.294 8.075-1.708-1.752-2.76-4.15-2.76-6.795 0-5.299 4.226-9.607 9.48-9.716z"></path>
</symbol>
</defs>
</svg>
