<svg aria-hidden="true" style="position: absolute; width: 0; height: 0; overflow: hidden;" version="1.1" xmlns="http://www.w3.org/2000/svg" xmlns:xlink="http://www.w3.org/1999/xlink">
<defs>
<symbol id="icon-telegram" viewBox="0 0 32 32">
<path d="M16 1.28c8.13 0 14.72 6.59 14.72 14.72s-6.59 14.72-14.72 14.72-14.72-6.59-14.72-14.72 6.59-14.72 14.72-14.72zM21.078 22c0.271-0.831 1.539-9.11 1.696-10.741 0.047-0.494-0.109-0.822-0.415-0.969-0.37-0.178-0.918-0.089-1.553 0.14-0.872 0.314-12.015 5.046-12.659 5.32-0.611 0.259-1.188 0.542-1.188 0.952 0 0.288 0.171 0.45 0.642 0.618 0.49 0.175 1.725 0.549 2.454 0.75 0.702 0.194 1.501 0.026 1.949-0.253 0.475-0.295 5.955-3.962 6.349-4.284s0.707 0.090 0.385 0.412c-0.321 0.321-4.083 3.972-4.579 4.478-0.602 0.614-0.175 1.25 0.229 1.505 0.461 0.291 3.78 2.516 4.28 2.874s1.007 0.519 1.471 0.519c0.464 0 0.708-0.611 0.94-1.321z"></path>
</symbol>
</defs>
</svg>
